<?xml version="1.0" encoding="utf-8"?>
<!-- Generator: Adobe Illustrator 15.1.0, SVG Export Plug-In . SVG Version: 6.00 Build 0)  -->
<!DOCTYPE svg PUBLIC "-//W3C//DTD SVG 1.1//EN" "http://www.w3.org/Graphics/SVG/1.1/DTD/svg11.dtd">
<svg version="1.1" xmlns="http://www.w3.org/2000/svg" xmlns:xlink="http://www.w3.org/1999/xlink" x="0px" y="0px" width="244px"
	 height="244px" viewBox="0 0 244 244" enable-background="new 0 0 244 244" xml:space="preserve">
<g id="Layer_1">
	<circle fill-rule="evenodd" clip-rule="evenodd" fill="#FFFFFF" cx="122" cy="122" r="121.166"/>
</g>
<g id="Layer_2">
	<path fill-rule="evenodd" clip-rule="evenodd" d="M60.187,95.181c3.761-5.175,9.107-11.523,15.319-17.377
		c0.469-0.441-0.935-2.145-0.457-2.58c2.759-2.512,5.67-4.906,8.677-7.045c0.991-0.705,3.87-0.117,4.879-0.762
		c10.282-6.57,21.414-9.763,31.16-4.387c-7.177,7.008-13.764,14.606-21.75,20.805c7.333,8.113,15.131,15.761,22.696,23.642
		c6.392-4.009,10.638-10.167,16.076-15.131c-9.152-16.124,3.812-26.961,11.35-34.99c4.357-2.178,9.498-1.355,14.185,0
		c-4.687,7.073-12.067,11.259-16.077,18.914c6.365,6.874,16.529,15.708,20.805,18.914c5.408-5.625,10.665-11.402,17.022-16.076
		c4.995,15.39-4.44,21.093-12.293,28.37c-6.743,3.825-17.553,1.161-21.751-2.837c-5.212,5.191-10.507,10.297-16.077,15.131
		c14.717,16.981,28.618,31.623,43.967,47.481c-3.244,6.287-8.5,9-14,9.5c-10.25-4.75-33.249-34.824-42.26-43.741
		c-4.729,3.577-7.812,5.634-13.24,10.401c12.828,22.986-5.674,45.6-24.587,37.827c0-0.945,0-1.891,0-2.837
		c4.333-4.808,11.307-5.631,14.185-13.239c-6.167-21.584-25.404-28.059-34.044-7.565c-1.261,0-2.522,0-3.783,0
		c-3.7-4.975-2.159-8.264,0-14.186c8.45-6.813,20.785-21.269,34.044-9.456c5.949-4.769,11.587-9.849,16.076-16.077
		c-7.154-8.017-15.073-15.819-21.75-24.587c-4.728,5.675-10.713,8.831-15.131,14.185c-0.631,0-1.261,0-1.891,0L60.187,95.181z"/>
</g>
</svg>
