<?xml version="1.0" encoding="utf-8"?>
<!-- Generator: Adobe Illustrator 15.1.0, SVG Export Plug-In . SVG Version: 6.00 Build 0)  -->
<!DOCTYPE svg PUBLIC "-//W3C//DTD SVG 1.1//EN" "http://www.w3.org/Graphics/SVG/1.1/DTD/svg11.dtd">
<svg version="1.1" id="Layer_1" xmlns="http://www.w3.org/2000/svg" xmlns:xlink="http://www.w3.org/1999/xlink" x="0px" y="0px"
	 width="244px" height="244px" viewBox="0 0 244 244" enable-background="new 0 0 244 244" xml:space="preserve">
<circle fill-rule="evenodd" clip-rule="evenodd" fill="#FFFFFF" cx="122" cy="122" r="121.166"/>
<path fill-rule="evenodd" clip-rule="evenodd" d="M172.082,169.657c-25.849,0-51.698,0-77.546,0
	c2.838-52.136-13.92-113.443,33.926-119.549c20.054-2.56,40.494,12.092,43.62,29.08C176.749,104.544,168.66,138.666,172.082,169.657
	z M109.076,126.847c0-15.366-2.347-34.18,0-46.043c2.834-14.332,20.836-24.246,34.732-20.195
	c-15.905-9.6-38.315,1.967-41.194,21.002c-3.654,24.162,2.744,58.793,0,84.008C113.465,160.698,109.076,142.132,109.076,126.847z
	 M113.922,165.619c10.895-3.962,6.462-22.119,6.462-35.542c0-18.646-1.286-39.316,2.424-50.081c4.682-3.667,8.07-8.623,13.733-11.31
	c4.427-0.956,12.757,1.988,14.538-1.615C99.432,54.234,116.643,124.153,113.922,165.619z M141.386,73.533
	c-27.581,4.425-10.623,59.477-15.345,88.855c12.923,0,25.847,0,38.77,0C160.939,130.465,178.14,67.638,141.386,73.533z"/>
<path fill-rule="evenodd" clip-rule="evenodd" d="M172.082,177.736c-3.875,5.979-14.085,3.23-21.003,3.23
	c-21.934,0-48.176,0-70.275,0c0.37-3.131,2.579-4.422,4.846-5.654C112.693,176.889,147.845,172.148,172.082,177.736z"/>
<path fill-rule="evenodd" clip-rule="evenodd" d="M71.918,185.813c31.485,1.582,71.134-3.175,100.164,2.424
	c-28.572,4.507-73.475,2.969-104.203,0.808C70.249,188.991,70.258,186.577,71.918,185.813z"/>
</svg>
