<?xml version="1.0" encoding="utf-8"?>
<!-- Generator: Adobe Illustrator 15.1.0, SVG Export Plug-In . SVG Version: 6.00 Build 0)  -->
<!DOCTYPE svg PUBLIC "-//W3C//DTD SVG 1.1//EN" "http://www.w3.org/Graphics/SVG/1.1/DTD/svg11.dtd">
<svg version="1.1" id="Layer_1" xmlns="http://www.w3.org/2000/svg" xmlns:xlink="http://www.w3.org/1999/xlink" x="0px" y="0px"
	 width="244px" height="244px" viewBox="0 0 244 244" enable-background="new 0 0 244 244" xml:space="preserve">
<g id="Layer_1_1_">
	<ellipse fill="#FFFFFF" cx="122" cy="121.938" rx="122" ry="122.062"/>
</g>
<g id="Layer_2">
	<g>
		<path d="M145.964,104c-42.607,12.156-42.066-53.105-5.92-48.347C162.201,58.569,167.7,92.996,145.964,104z"/>
		<path d="M83.021,138.63c0.018-0.063,2.792,1.745,2.812,1.681 M80.665,165.217c-11.993,1.469-15.208-3.73-15.608-13.857
			c-2.823,0.14-1.806,4.117-1.975,6.906c-4.15,2.469-10.649,2.469-14.8,0c-1.971-30.912,10.612-47.271,36.507-50.32
			C65.469,95.707,68.077,83.767,75.666,75.5c9.333-10.167,32-8,32.667,11.667c0.458,13.512-5.646,15.655-13.678,19.793
			c2.423,2.511,11.986,1.535,12.335,4.792c-11.17,5.236-19.606,14.109-23.969,27.811C81.158,148.523,80.403,157.8,80.665,165.217z
			 M82.816,165.174c0-2.529,0.205-15.839,3.016-24.863c16.53-56.179,121.156-36.152,102.557,31.77
			c-6.365,1.036-11.393,1.036-17.76,0c-0.956-0.753-0.792-0.251-1.217-1.801c1.27-3.039,2.965-12.194,0.23-15.959
			c6.506,35.123-70.088,38.244-65.121,1.973c-3.48,2.113-1.418,9.766-1.975,14.802C96.135,172.896,81.787,175.98,82.816,165.174"/>
	</g>
</g>
</svg>
